<?xml version="1.0" encoding="utf-8"?>
<!-- Generator: Adobe Illustrator 26.5.0, SVG Export Plug-In . SVG Version: 6.00 Build 0)  -->
<svg version="1.1" id="Layer_1" xmlns="http://www.w3.org/2000/svg" xmlns:xlink="http://www.w3.org/1999/xlink" x="0px" y="0px"
	 viewBox="0 0 24 24" style="enable-background:new 0 0 24 24;" xml:space="preserve">
<style type="text/css">
	.st0{clip-path:url(#SVGID_00000161628677063227434540000004806929002141970818_);}
	.st1{fill:#264653;}
</style>
<g>
	<defs>
		<rect id="SVGID_1_" width="24" height="24"/>
	</defs>
	<clipPath id="SVGID_00000078046383945299491440000011116314381711116691_">
		<use xlink:href="#SVGID_1_"  style="overflow:visible;"/>
	</clipPath>
	<g style="clip-path:url(#SVGID_00000078046383945299491440000011116314381711116691_);">
		<path class="st1" d="M24,4.6c-0.9,0.4-1.8,0.7-2.8,0.8c1-0.6,1.8-1.6,2.2-2.7c-1,0.6-2,1-3.1,1.2c-0.9-1-2.2-1.6-3.6-1.6
			c-2.7,0-4.9,2.2-4.9,4.9c0,0.4,0,0.8,0.1,1.1C7.7,8.1,4.1,6.1,1.6,3.2C1.2,3.9,1,4.7,1,5.6c0,1.7,0.9,3.2,2.2,4.1
			c-0.8,0-1.6-0.2-2.2-0.6v0.1c0,2.4,1.7,4.4,3.9,4.8c-0.4,0.1-0.8,0.2-1.3,0.2c-0.3,0-0.6,0-0.9-0.1c0.6,2,2.4,3.4,4.6,3.4
			c-1.7,1.3-3.8,2.1-6.1,2.1c-0.4,0-0.8,0-1.2-0.1c2.2,1.4,4.8,2.2,7.6,2.2c9.1,0,14-7.5,14-14c0-0.2,0-0.4,0-0.6
			C22.5,6.4,23.3,5.6,24,4.6L24,4.6z"/>
	</g>
</g>
</svg>
